<?xml version="1.0" standalone="no"?><svg xmlns="http://www.w3.org/2000/svg" viewBox="0 0 1440 320"><path fill="#273036" fill-opacity="3" d="M0,192L11.4,170.7C22.9,149,46,107,69,96C91.4,85,114,107,137,128C160,149,183,171,206,197.3C228.6,224,251,256,274,256C297.1,256,320,224,343,181.3C365.7,139,389,85,411,64C434.3,43,457,53,480,53.3C502.9,53,526,43,549,53.3C571.4,64,594,96,617,112C640,128,663,128,686,154.7C708.6,181,731,235,754,234.7C777.1,235,800,181,823,160C845.7,139,869,149,891,181.3C914.3,213,937,267,960,272C982.9,277,1006,235,1029,224C1051.4,213,1074,235,1097,213.3C1120,192,1143,128,1166,96C1188.6,64,1211,64,1234,101.3C1257.1,139,1280,213,1303,229.3C1325.7,245,1349,203,1371,197.3C1394.3,192,1417,224,1429,240L1440,256L1440,320L1428.6,320C1417.1,320,1394,320,1371,320C1348.6,320,1326,320,1303,320C1280,320,1257,320,1234,320C1211.4,320,1189,320,1166,320C1142.9,320,1120,320,1097,320C1074.3,320,1051,320,1029,320C1005.7,320,983,320,960,320C937.1,320,914,320,891,320C868.6,320,846,320,823,320C800,320,777,320,754,320C731.4,320,709,320,686,320C662.9,320,640,320,617,320C594.3,320,571,320,549,320C525.7,320,503,320,480,320C457.1,320,434,320,411,320C388.6,320,366,320,343,320C320,320,297,320,274,320C251.4,320,229,320,206,320C182.9,320,160,320,137,320C114.3,320,91,320,69,320C45.7,320,23,320,11,320L0,320Z"></path></svg>